<svg version="1.1" class="copy-logo" xmlns="http://www.w3.org/2000/svg" xmlns:xlink="http://www.w3.org/1999/xlink" x="0px" y="0px"
	 viewBox="0 0 19 19" style="enable-background:new 0 0 19 19;" xml:space="preserve">
<path class="copy-logo__top" d="M14.8,12.5h-4.7c-2,0-3.7-1.6-3.7-3.7V4.2c0-2,1.6-3.7,3.7-3.7h4.7c2,0,3.7,1.6,3.7,3.7v4.7
	C18.5,10.9,16.9,12.5,14.8,12.5z"/>
<path class="copy-logo__bottom" d="M12.5,14.2c0,0.9,0-0.2,0,0.7c0,2-1.6,3.7-3.7,3.7H4.2c-2,0-3.7-1.6-3.7-3.7v-4.7c0-2,1.6-3.7,3.7-3.7h0.7"/>
</svg>
