<?xml version="1.0" encoding="utf-8"?>
<!-- Generator: Adobe Illustrator 23.0.6, SVG Export Plug-In . SVG Version: 6.00 Build 0)  -->
<svg version="1.1" id="Layer_1" xmlns="http://www.w3.org/2000/svg" xmlns:xlink="http://www.w3.org/1999/xlink" x="0px" y="0px"
	 viewBox="0 0 19 19" style="enable-background:new 0 0 19 19;" xml:space="preserve">
<style type="text/css">
	.st0{fill:none;stroke:#000000;stroke-miterlimit:10;}
	.st1{fill:none;stroke:#000000;stroke-linecap:round;stroke-linejoin:round;stroke-miterlimit:10;}
</style>
<path class="st0" d="M14.8,12.5h-4.7c-2,0-3.7-1.6-3.7-3.7V4.2c0-2,1.6-3.7,3.7-3.7h4.7c2,0,3.7,1.6,3.7,3.7v4.7
	C18.5,10.9,16.9,12.5,14.8,12.5z"/>
<path class="st1" d="M12.5,14.2c0,0.9,0-0.2,0,0.7c0,2-1.6,3.7-3.7,3.7H4.2c-2,0-3.7-1.6-3.7-3.7v-4.7c0-2,1.6-3.7,3.7-3.7h0.7"/>
</svg>
