<svg class="flag" xmlns="http://www.w3.org/2000/svg"
	 viewBox="0 0 250 100" xml:space="preserve">
	
	 <polygon class="flag__body" points="0,0 125,0 250,0 250,50 250,100 125,100 0,100 47.5,50 	"/>

	<path class="flag__stroke" d="M237.5,10h-12v1h12V10L237.5,10z M213.5,10h-12v1h12V10L213.5,10z M189.5,10h-12v1h12V10L189.5,10z M165.5,10
	h-12v1h12V10L165.5,10z M141.5,10h-12v1h12V10L141.5,10z M117.5,10h-12v1h12V10L117.5,10z M93.5,10h-12v1h12V10L93.5,10z M69.5,10
	h-12v1h12V10L69.5,10z M45.5,10h-12v1h12V10L45.5,10z M28.5,12l-0.7,0.7c0,0,3.1,3.3,5.5,5.8l0,0c0,0,0,0,0,0l2.7,2.9l0.7-0.7
	L28.5,12L28.5,12z M45,29.4l-0.7,0.7l4.6,4.9c0,0,0,0,0,0l0,0c1.9,2,3.6,3.8,3.6,3.8l0.7-0.7L45,29.4L45,29.4z M61.5,46.8l-0.7,0.7
	c0,0,2,2.1,2.3,2.5l0,0c0,0,0,0,0,0l0,0c0,0,0,0,0,0l0,0c0,0,0,0,0,0l0,0c0,0,0,0,0,0l0,0c0,0,0,0,0,0l0,0c0,0,0,0,0,0l0,0
	c0,0,0,0,0,0l0,0c0,0,0,0,0,0l0,0c0,0,0,0,0,0l0,0c0,0,0,0,0,0l0,0c0,0,0,0,0,0l0,0c0,0,0,0,0,0l0,0c0,0,0,0,0,0l0,0l0,0l0,0l0,0
	l0,0c0,0,0,0,0,0l0,0c0,0,0,0,0,0l0,0c0,0,0,0,0,0l0,0c0,0,0,0,0,0l0,0c0,0,0,0,0,0l0,0c0,0,0,0,0,0l0,0c0,0,0,0,0,0l0,0
	c0,0,0,0,0,0l0,0c0,0,0,0,0,0l0,0c0,0,0,0,0,0l0,0c0,0,0,0,0,0l0,0c0,0,0,0,0,0v0c0,0,0,0,0,0l0,0c0,0,0,0,0,0l0,0c0,0,0,0,0,0l0,0
	c0,0,0,0,0,0l0,0c0,0,0,0,0,0l0,0c0,0,0,0,0,0l0,0c0,0,0,0,0,0l0,0c0,0,0,0,0,0l0,0c0,0,0,0,0,0l0,0c0,0,0,0,0,0l0,0c0,0,0,0,0,0
	l0,0c0,0,0,0,0,0l0,0c0,0,0,0,0,0l0,0c0,0,0,0,0,0l0,0c0,0,0,0,0,0l0,0c0,0,0,0,0,0l0,0c0,0,0,0,0,0l0,0c0,0,0,0,0,0l0,0
	c0,0,0,0,0,0l0,0c0,0,0,0,0,0l0,0c0,0,0,0,0,0l0,0c0,0,0,0,0,0l0,0c0,0,0,0,0,0l-0.3,0.3c0,0,0,0,0,0l0,0c0,0,0,0,0,0l-5.4,5.6
	l0.7,0.7l5.9-6.2l0.7-0.7l-0.7-0.7L61.5,46.8L61.5,46.8z M49.1,64.9l-1.9,2c0,0,0,0,0,0L47,67c0,0,0,0,0,0l0,0c0,0,0,0,0,0l0,0
	c0,0,0,0,0,0l0,0c0,0,0,0,0,0l0,0c0,0,0,0,0,0l-0.1,0.1c0,0,0,0,0,0l0,0c0,0,0,0,0,0l-0.1,0.1c0,0-0.1,0.1-0.1,0.1l0,0c0,0,0,0,0,0
	l0,0c0,0,0,0,0,0l0,0c0,0,0,0,0,0l0,0c0,0,0,0,0,0l0,0c0,0,0,0,0,0l0,0c0,0,0,0,0,0l0,0c0,0,0,0,0,0l0,0c-2.4,2.6-5.7,6-5.7,6
	l0.7,0.7l8.3-8.7L49.1,64.9L49.1,64.9z M32.5,82.3c0,0-4.4,4.6-6.4,6.7h0l-0.9,1l0,0l0,0l0,0l0,0l0,0l0,0l0,0l0,0h1.4l6.7-7
	L32.5,82.3L32.5,82.3z M50.6,89h-12v1h12V89L50.6,89z M74.6,89h-12v1h12V89L74.6,89z M98.6,89h-12v1h12V89L98.6,89z M122.6,89h-12
	v1h12V89L122.6,89z M146.6,89h-12v1h12V89L146.6,89z M170.6,89h-12v1h12V89L170.6,89z M194.6,89h-12v1h12V89L194.6,89z M218.6,89
	h-12v1h12V89L218.6,89z M237.5,84.9h-1V89h-5.9v1h6.9V84.9L237.5,84.9z M237.5,60.9h-1v12h1V60.9L237.5,60.9z M237.5,36.9h-1v12h1
	V36.9L237.5,36.9z M237.5,12.9h-1v12h1V12.9L237.5,12.9z"/>
</svg>
